<?xml version="1.0" encoding="utf-8"?>
<svg version="1.1" xmlns="http://www.w3.org/2000/svg" xmlns:xlink="http://www.w3.org/1999/xlink" x="0px" y="0px"
	 viewBox="0 0 595.3 841.9" style="enable-background:new 0 0 595.3 841.9;" xml:space="preserve">
<style type="text/css">
	.st0{display:none;}
	.st1{fill:none;stroke:#0085CA;stroke-width:0.9921;stroke-miterlimit:10;}
	.st2{fill:#0085CA;}
	.st3{fill:none;stroke:#5D5769;stroke-width:2.8346;stroke-linecap:square;stroke-linejoin:bevel;}
</style>
<g id="Layer_1" class="st0">
	
		<image style="display:inline;overflow:visible;" width="1093" height="880" xlink:href="../../Screenshot 2026-02-05 154617.jpg"  transform="matrix(0.383 0 0 0.5227 93.3333 214.5567)">
	</image>
</g>
<g id="toruismo">
	<path class="st1" d="M418,351.1l1.7,1.4l2.8,10.4l-0.4,0.8l-4.1,0.6l-3.2,6.9l27.8,11.4l2.4,4.4l9.3,6.5l1.5,0.8l2.1-0.7l0.5-2.8
		l-1.2-3.2l-0.4-2.3l0-1.6l-1.1-1.8l-0.5-1.8l-0.4-1l-2.1-0.4l-1.7-1l-0.3-3.1L449,373c0,0-1.1-0.6-1.1-1s0.2-1.9,0.2-1.9
		s0.7-1.6,0.7-1.7s-0.4-2-0.4-2l-0.6-3l-1.8-1.2l-0.6-2.8l-1.4-0.8l-3.2-0.3l-1.9-3.2v-3c0,0-0.1-1.6-0.1-1.8
		c-0.1-0.2-3.2-3.3-3.2-3.3l-2.7-1.2l-2.7,0.3l-5-3.6L418,351.1z"/>
</g>
<g id="agrofor">
	<path class="st1" d="M455.7,421.2l-2.5-4.5l-10.5-34.1l-27.8-11.4l-3.5,2.9l-2.5,3l-0.7,0.3l-7.9-1.1l-7,0l-3.2,2.7l-1.7,3.7
		l-5.4,0.2l-4.1-1.7l-0.2-3l-2.7-2.8l-0.7-1.4l-3.3-2.5l-0.7,0.5l-0.5,2.2l-1.7-0.1l-5,3.7l-2.5,1l-3.7-1.3l-2.8,0.1l-0.6-0.3
		l-1.3-2.6l-1.1-3.9l-1.8-3.1l-0.2-9.6l-3.2-13.5l-11.8-11.7l-11.8,12.2l-8,1.3l-6.3-4.7l-2,2.6l-11.2-6.8l-1.8-10.1l4.2-15.7
		l-10.8,2.2l-4.7,2.4l-16.6,20.8l-18.5,12.6l-10.4,5.3l-6.5,4.2l-22,27.9h-10.5l-8.1-2.7l-12.8,3.6l-20.7,27.1l-1.1,5.6l7.3,4.9h8.8
		l15,5.9l-14.3,3.4l-16.8,16.5v7.5l-1.7,1.6l-2.6,1.1l-2,1.3v3l-1.3,4l2.7,7l7.2,0.3l18.5,15.7l6.4,10h8.4l1.9-1l4.8,0.6l9.4,0.4
		l13.3-12.3l-3.9-8.8l-3.3-3.8l-8.9-2.9l-1.9-3.8l1.2-5.2l1.4-4l-2.4-3.3l-1-3.7l1.3-2.2l1.8-0.8l2.6,1l3.4,1.9l5.2,0.1l4.9,0.3
		l7.6,6.5c0,0-0.8,9.6-0.8,9.8s0.5,2.8,0.5,2.8l1,1.8l-0.6,1.1v2.2l2.4,1.6l2.6,2.6l-0.2,4.2l-6,16.1l-5.1,4.4l-5.6,1.4H208h-12.6
		l-9,1.1l-2.2,1.1l-0.8,3.2l1.6,2.2c0,0,1.6,2.1,1.7,2.3s0.8,2.6,0.8,2.6l6.4,2.4l10.9,0.9l8.7,0.3l6.8,1.1l10.9,17.6l-0.3,8.5
		c0,0-1.5,5.1-1.5,5.3s-2.9,5.4-2.9,5.4l-1,4.8l1.4,2.8l3.5,2.6c0,0,0.8,2.8,0.8,3.3s0.9,8.3,0.9,8.3l2.4,2.3c0,0,3.5,0.1,3.7,0
		s4.6,0,4.6,0s2.2,1.3,2.4,1.6s3.4,0.5,3.4,0.5l0.3-1.3v-2.9l2.2-2.2l2.6-0.9l3.4,1.1c0,0,6.1,1.3,6.4,1.3s3.9-0.4,4.1-0.5
		s3.1-1.9,3.1-1.9l5.6-11.3l3.3-3.4c0,0,2.9-3,3.2-3.3s3.4-1.9,3.4-1.9s2.9-1.6,3.3-1.8s7.7-6.4,8.1-6.9s3.1-4.4,3.1-4.4l4.5-1.2
		l2.3,0.4l2.8,0.9c0,0,6.3-0.2,6.8-0.2s5.8-1.3,5.8-1.3l10-3.9l4.4-0.9c0,0,1.7-2.3,1.8-2.6s1.8-1.6,1.9-1.6s1.3,0.8,1.3,0.8
		l1.1,4.3l2.4-5l5.1-3.9l4.8-1.9c0,0,3.3,0.4,3.6,0.4s2.7-0.4,3.8-0.4s4.6-1.3,4.6-1.3l2.1-1.3l3.8-0.4l4-0.5l3.1-4.3l0.5-4.8
		l-6.8-5.5l-2.2-2.8l-1.1-4.8l0.1-9.1l18.1-14.3l6.4-8.6c0,0,1.8-4.4,1.9-4.9s1.4-4.6,1.4-4.6l-2.4-5l-5.6-7.7c0,0-0.5-5.2-0.5-5.3
		c0-0.1,1.4-6.9,1.4-6.9s0.9-12.3,0.9-12.4s0.8-5.4,0.8-5.4s1.6-5.3,1.8-5.7s1.6-4.4,1.6-4.4l6.1-8.4c0,0,5.3-2.6,5.5-2.8
		s3.9-0.8,3.9-0.8l4.5,1.9l6.5,2.3l5.2,3.1l11.6,8.1l3.1,3.1l5.4,2.6l3.4,1.6l2.8,0.1c0,0,0.8-1.3,0.8-1.5S455.7,421.2,455.7,421.2z
		 M309.3,438.7l-2.9-0.6l-2.2,1.4L301,442l-5.1,2.8l-4.9,1.5l-2.8,0.4h-2l-7.9-1.3l-7.4-4.6l-2.7-2.3l-1.1-0.8l-2-0.5l-2.4-0.4
		l-2.3-2.1l-3.7-2.8l-1.1-0.6l-0.3-1.8l-1.3-5.1l-1.9-3.6l-0.7-3.4v-0.6l-0.6-12.1l-0.9-1.8l0.3-1.7l1-1.1l1.4-0.3l1-0.3l7.4-12.2
		l1.2-3.6l3.1-5.1l4.2-1.8l4.8-2.3l2.9-1.2c0,0,2.8,0.7,3.5,0.8s15.6,7.1,15.6,7.1l4.6,2.6l4.4,0.7l1.9,0.6h1.4l5.1-1.3l4.9,1.1
		l5.5,2.8l5.4,2.4l2.3,3.9l3.8,6.4l1.9,1.4l2.4,0.3l1.3,1.1l-0.6,5.3l-8.1,16.7l-2.9,4l-4.4,4l-4.3,3.8l-1.4,2.4l-1.4,1.5l-2.1,0.7
		l-4.3-1.4L309.3,438.7z M366.2,514l-2.4,7.3l-2.8,4.5l-2.7,2.6l-4,2.2c0,0-0.8,0.6-0.8,0.8s-1.4,2.2-1.4,2.2s-2.2,1.4-2.3,1.5
		s-2.7,0.7-2.7,0.7l-2.1-0.3l-1.2-1.1l-1.2-0.4l-1.9,0l-1.8,0.8l-0.3,1.3c0,0-0.1,0.9-0.7,1s-1.8,0-1.8,0l-2.3-0.9
		c0,0-1.3,0.9-1.8,1.2s-2.1,0.4-2.3,0.4s-2.6-0.4-2.6-0.4l-2.4-1.3l-1.1-0.5l-1.5,0.3l-1.7,1.1l-1.5,0.3L317,537l-1.5-0.9l-1.6-2.6
		l-0.5-1.5l-0.6-1.9c0,0,0.8-1.3,0.8-1.4s0.6-1.7,0.6-1.7l1.3-1.4l2.2-3.5l1.2-1.2l1.5-0.6l1.6,0.3l1.2,1.3l1.8,0.7h2.8l1.6-1.3
		l10.4-8.2l3.6-2.9l1.5-2.2l1.5-1.4l1.9-0.3l0.6,1.9l1.2,5l1.6,2.3l2,1.5l2.3-0.2l1.6-1.5l2.4-4.8l0.9-0.3l-1.6,5.8l-0.2,2.1
		l0.9,0.6l1.1-1.4l5.2-8.8l0.8-0.3l0.4,0.9L366.2,514z"/>
</g>
<g id="altitudine">
	<path class="st1" d="M286.2,446.7l-7.9-1.3l-7.4-4.6l-2.7-2.3l-1.1-0.8l-2-0.5l-2.4-0.4l-2.3-2.1l-3.7-2.8l-1.1-0.6l-0.3-1.8
		l-1.3-5.1l-1.9-3.6l-0.7-3.4V417l-0.6-12.1l-0.9-1.8l0.3-1.7l1-1.1l1.4-0.3l1-0.3l7.4-12.2l1.2-3.6l3.1-5.1l4.2-1.8l4.8-2.3
		l2.9-1.2c0,0,2.8,0.7,3.5,0.8s15.6,7.1,15.6,7.1l4.6,2.6l4.4,0.7l1.9,0.6h1.4l5.1-1.3l4.9,1.1l5.5,2.8l5.4,2.4l2.3,3.9l3.8,6.4
		l1.9,1.4l2.4,0.3l1.3,1.1l-0.6,5.3l-8.1,16.7l-2.9,4l-4.4,4l-4.3,3.8l-1.4,2.4l-1.4,1.5l-2.1,0.7l-4.3-1.4l-2.3-1.3l-2.9-0.6
		l-2.2,1.4l-3.3,2.6l-5.1,2.8l-4.9,1.5l-2.8,0.4H286.2z"/>
</g>
<g id="savana">
	<path class="st1" d="M320.5,536.9l-1.5,0.3l-2.1-0.1l-1.5-0.9l-1.6-2.6l-0.5-1.5l-0.6-1.9c0,0,0.8-1.3,0.8-1.4s0.6-1.7,0.6-1.7
		l1.3-1.4l2.2-3.5l1.2-1.2l1.5-0.6l1.6,0.3l1.2,1.3l1.8,0.7h2.8l1.6-1.3l10.4-8.2l3.6-2.9l1.5-2.2l1.5-1.4l1.9-0.3l0.6,1.9l1.2,5
		l1.6,2.3l2,1.5l2.3-0.2l1.6-1.5l2.4-4.8l0.9-0.3l-1.6,5.8l-0.2,2.1l0.9,0.6l1.1-1.4l5.2-8.8l0.8-0.3l0.4,0.9l-1.2,4.8l-2.4,7.3
		l-2.8,4.5l-2.7,2.6l-4,2.2c0,0-0.8,0.6-0.8,0.8s-1.4,2.2-1.4,2.2s-2.2,1.4-2.3,1.5s-2.7,0.7-2.7,0.7l-2.1-0.3l-1.2-1.1l-1.2-0.4
		l-1.9,0l-1.8,0.8l-0.3,1.3c0,0-0.1,0.9-0.7,1s-1.8,0-1.8,0l-2.3-0.9c0,0-1.3,0.9-1.8,1.2s-2.1,0.4-2.3,0.4s-2.6-0.4-2.6-0.4
		l-2.4-1.3l-1.1-0.5l-1.5,0.3L320.5,536.9z"/>
</g>
<g id="riserve">
	<g>
		<polygon class="st2" points="450.8,374.2 450.8,373.8 449.9,373.3 450.8,374.2 		"/>
		<path class="st2" d="M448.8,367.9c0,0.1-0.7,1.7-0.7,1.7v0l0.9-0.8l0.4-1.6l-0.7-0.8l-0.2-0.4v0
			C448.4,365.9,448.8,367.8,448.8,367.9z"/>
		<polygon class="st2" points="441.5,357.9 440.4,357.1 440.8,357.8 		"/>
		<polygon class="st2" points="455.3,379.6 455.2,379.3 454.9,378.6 455.3,379.6 		"/>
		<polygon class="st2" points="251.3,399.8 251.3,399.9 252.6,399.6 253.6,399.3 253.6,399.2 252.7,399.5 		"/>
		<polygon class="st2" points="456.8,383.2 456.8,382.8 456.7,382.4 455.9,381.7 456.8,383.2 		"/>
		<path class="st2" d="M438.9,353.6l0.5-0.7v-1.5l-0.7-1.5c0.1,0.2,0.1,1.8,0.1,1.8V353.6z"/>
		<polygon class="st2" points="304.2,439 300.9,441.6 295.8,444.3 295.8,444.3 301,441.5 304.3,439 306.4,437.6 306.4,437.6 		"/>
		<polygon class="st2" points="433.9,345.9 433,345.4 432.9,345.5 432.9,345.5 		"/>
		<polygon class="st2" points="454.3,393 454.3,393 454.9,393.8 455.4,393.9 455.9,393.8 454.3,393 		"/>
		<polygon class="st2" points="444.7,358.2 444,358.2 445.4,359 		"/>
		<polygon class="st2" points="445.6,359.2 445.4,359 445.6,359.6 		"/>
		<polygon class="st2" points="447.7,362.8 447.5,362.8 447.8,363 		"/>
		<polygon class="st2" points="458.2,389.6 458.1,388.8 457.7,388.1 457.2,387.1 457.2,387.1 		"/>
		<path class="st2" d="M438.3,348.9l-1.1-0.6c0.7,0.8,1.5,1.5,1.5,1.6L438.3,348.9z"/>
		<polygon class="st2" points="456.4,393.6 456.5,393.6 455.9,393.8 		"/>
		<polygon class="st2" points="448,363.3 447.8,363 448,364.1 		"/>
		<polygon class="st2" points="454.7,378.2 453.9,378 453,378.2 452.8,378.2 454.9,378.6 		"/>
		<polygon class="st2" points="320.6,536.4 320.6,536.3 322.2,535.3 322.2,535.3 		"/>
		<polygon class="st2" points="323.1,521.4 321.9,520.1 320.3,519.8 318.8,520.4 318.8,520.4 320.2,519.8 321.8,520.1 323.1,521.4 
			324.8,522.1 327.6,522.1 327.7,522.1 324.9,522.1 		"/>
		<polygon class="st2" points="371.5,371.5 371.9,371.2 371.7,371 		"/>
		<polygon class="st2" points="351.5,515.1 353.5,516.6 355.8,516.5 355.9,516.4 353.6,516.6 351.6,515.1 350,512.8 348.8,507.8 
			348.1,505.8 346.2,506.1 346.2,506.1 348.1,505.9 348.7,507.8 349.9,512.8 		"/>
		<polygon class="st2" points="390,378.6 388.3,382.3 388.3,382.3 390,378.6 393.1,376 392.7,376 		"/>
		<path class="st2" d="M366.3,508.1L366.3,508.1l0.7-0.3l0.4,0.9l-1.2,4.8l-2.4,7.3l-2.8,4.5l-2.7,2.6l-4,2.2c0,0-0.8,0.6-0.8,0.8
			s-1.4,2.2-1.4,2.2s-1.9,1.3-2.2,1.5c0,0,0,0,0,0c0.2-0.1,2.3-1.5,2.3-1.5s1.4-2,1.4-2.2s0.8-0.8,0.8-0.8l4-2.2l2.7-2.6l2.8-4.5
			l2.4-7.3l1.2-4.8l-0.4-0.9L366.3,508.1z"/>
		<polygon class="st2" points="367.3,375 364.1,377.4 364.1,377.4 369.1,373.7 370.2,373.8 369,373.6 		"/>
		<path class="st2" d="M490.8,501.6l1.2-2.1l-1.7-2l-1.2-4.1l-2-1.3l-2.2-2.6v-1.7l1.8-0.8l2-1.4l-0.6-2.8l-3.2-0.9l-1.1-1l-1.5-1.2
			l0.3-1.5l1.3-0.5l1.7-1.2l0.6-2.8l-0.6-2l-1.9-1.8l-0.9-1.5l-0.2-2.9l1.1-2.3l0.8-2.6l-0.8-2.1l-1.1-2.2l-2.5-3.4l-4.7-0.9
			l-1.9-2.3l-2.8-1.1l-0.8-1.3l0.5-2.6l-0.9-4.2l-3.2-1.9l-1.9,0.1l-1.7,1.3l-1.5,1.8l-1.8-0.7l-2.2-2.1l-0.4-2.1l-0.8-2.1l-0.7-4
			l0.6-0.9l2.3-1.4l1.1-0.4l1.1,0.4l2.7,1.5l1,0.4l0.7-0.4l0.1-1l-0.7-3.1l0.2-2.1l-0.6-1.3l-1.9-4.5l-1.4-3l-3.3-3.2l-0.9-1.1
			l1.5-2.6l2-0.8l1.3-1.5l-0.1-3.4l-1.3-2l-0.3-1l-0.7-0.1l-1.7,0.4l-1.2-0.5l-1.5-0.5l-1.4,0.2l-0.6-0.2l-0.6-0.8l-1-0.9l0.3-1.2
			l0.9-1.8l1.1-1.2l0.9-0.1l-8.9-6.2l-2.2-4l10.4,33.6l2.5,4.5c0,0,0.1,2.4,0,2.6s-0.8,1.5-0.8,1.5l-2.8-0.1l-3.4-1.6l-5.4-2.6
			l-3.1-3.1l-11.6-8.1l-5.2-3.1l-6.5-2.3l-4.5-1.9c0,0-3.7,0.6-3.9,0.8s-5.5,2.8-5.5,2.8l-6.1,8.4c0,0-1.4,4-1.6,4.4
			s-1.8,5.7-1.8,5.7s-0.8,5.3-0.8,5.4s-0.9,12.4-0.9,12.4s-1.4,6.8-1.4,6.9c0,0.1,0.5,5.3,0.5,5.3l5.6,7.7l2.4,5
			c0,0-1.3,4.1-1.4,4.6s-1.9,4.9-1.9,4.9l-6.4,8.6L371.2,499l-0.1,9.1l1.1,4.8l2.2,2.8l6.8,5.5l-0.5,4.8l-3.1,4.3l-4,0.5l-3.8,0.4
			l-2.1,1.3c0,0-3.5,1.3-4.6,1.3s-3.5,0.4-3.8,0.4s-3.6-0.4-3.6-0.4l-4.8,1.9l-5.1,3.9l-2.4,5l-1.1-4.3c0,0-1.1-0.8-1.3-0.8
			s-1.8,1.3-1.9,1.6s-1.8,2.6-1.8,2.6l-4.4,0.9l-10,3.9c0,0-5.3,1.3-5.8,1.3s-6.8,0.2-6.8,0.2l-2.8-0.9l-2.3-0.4l-4.5,1.2
			c0,0-2.6,3.9-3.1,4.4s-7.8,6.7-8.1,6.9s-3.3,1.8-3.3,1.8s-3.1,1.6-3.4,1.9s-3.2,3.3-3.2,3.3l-3.3,3.4l-5.6,11.3
			c0,0-2.9,1.9-3.1,1.9s-3.8,0.5-4.1,0.5s-6.4-1.3-6.4-1.3l-3.4-1.1l-2.6,0.9l-2.2,2.2v2.9l-0.3,1.3c0,0-3.2-0.3-3.4-0.5
			s-2.4-1.6-2.4-1.6s-4.4-0.1-4.6,0s-3.7,0-3.7,0l-2.4-2.3c0,0-0.9-7.8-0.9-8.3s-0.8-3.3-0.8-3.3l-3.5-2.6l-1.4-2.8l1-4.8
			c0,0,2.9-5.2,2.9-5.4s1.5-5.3,1.5-5.3l0.3-8.5l-10.9-17.6l-6.8-1.1l-8.7-0.3l-10.9-0.9l-6.4-2.4c0,0-0.8-2.4-0.8-2.6
			s-1.7-2.3-1.7-2.3l-1.6-2.2l0.8-3.2l2.2-1.1l9-1.1H208h8.9l5.6-1.4l5.1-4.4l6-16.1l0.2-4.2l-2.6-2.6l-2.4-1.6v-2.2l0.6-1.1l-1-1.8
			c0,0-0.5-2.6-0.5-2.8s0.8-9.8,0.8-9.8l-7.6-6.5l-4.9-0.3l-5.2-0.1l-3.4-1.9l-2.6-1l-1.8,0.8l-1.3,2.2l1,3.7l2.4,3.3l-1.4,4
			l-1.2,5.2l1.9,3.8l8.9,2.9l3.3,3.8l3.9,8.8l-13.3,12.3l-9.4-0.4l-4.8-0.6l-1.9,1h-8.4l-6.4-10l-18.5-15.7l-7.2-0.3l-2.7-7l1.3-4
			v-3l2-1.3l2.6-1.1l1.7-1.6v-7.5l16.8-16.5l14.3-3.4l-15-5.9h-8.8l-7.3-4.9l1.1-5.6l20.7-27.1l12.8-3.6l8.1,2.7h10.5l22-27.9
			l6.5-4.2l10.4-5.3l18.5-12.6l16.6-20.8l4.7-2.4l10.8-2.2l-4.2,15.7l1.8,10.1l11.2,6.8l2-2.6l6.3,4.7l8-1.3l11.8-12.2l11.8,11.7
			l3.2,13.4l2.2-4.4l1.6-2.1l3.9-3.4l2.9-0.2l2.2-2.1l2.4,0.6l3.1-2.9l3-0.1l2.8-2.1l0.6-4.8l2.5-3.1l3.2-0.2l2.4-1.3l1.7-0.2
			l4.2-3.5v-3l1.6-2l7.5,9.4l-1.4,8.7l-4.1,2.5l8,1.4l0.3,1.3l10.3,5.2l6.9-0.8l7.3-8.4l1.5,1.1l-0.5-0.8l-1.1-0.3l-0.4-0.7
			l-0.4-2.4l-0.3-2.4l1-1.7l2.1-0.8l1.3-1.1l0.9-0.8l0.1-0.6l-0.4-0.5l-0.7-0.9l-0.5-1.3l-0.8-2.2l-0.6-1.7l-0.5-0.5l-1.1-0.6
			l-1.9-0.9l-6.8-2.1l-8-1.3l-6.7-0.7l-4.3-1.7l-4-3.9l-4.5-3.3l-5.6-2.3l-9.9-2.3l-15.6-0.7l-6-1.2l-6.5-1.8l-4.6-3.4l-4-0.9
			l-4-0.5l-3-1.9l-5.1-2.3l-10.6-1.1l-4.6-1.3l-4.8,0.2l-3.2,0.5l-5.3-1.4l-42.1,0.8l-6.9-1.4l-7.6-3.4l-8.6-4.3L187.5,268l-8.8-3
			l-6.5-0.3l-13.1,2.3l-13,5.4l-1.6,1.6l-1.6-0.1l-1.3-0.7l-0.9-0.1l-0.6,0.4l-0.8,0.9l-2.3,4.8l-0.1,0.6v0.8l0.2,0.5l-0.1,0.6
			l-0.4,0.6l-2.2,1.9l-0.7,0.4l-0.7,0.2l-2.6,0.5l-2.8,1.2l-0.5,1.1l-0.2,0.8l0.1,1.6l-0.1,0.8l-0.4,0.6l-1,0.7l-1.4,0.6l-0.7,0.8
			l-0.3,1.2l0.1,1.2l-0.5,2.4l0.9,2.7l-1,2.4l-0.1,0.9l0.9,0.3l0.5,1l-0.4,0.4l0.4,1.9l-0.4,1.2l-2.3,1.9l-1.8,0.2l-0.2,0.9l1.1,2
			l-0.6,1.5l-3.3,2.5l-1.9,2.6l0.2,1.3l2.1,12.7l0.2,14.7l2.1,11.8l5.2,15.9l1.2,2.5l2.7,4.8l0.1,3.6l-1.1,4.5l-4.4,4.2l-4.5,5.2
			l-3.6,5.3l-1.5,7.3l-1.4,18.9l2.3,3.2l1.4,4.1l0.2,4.6l2.6,3.5l2.8,5.4l1.4,2.1l1.2,7.3l2.3,3.2l1.6,3.7l2,3.6l3.8,4.3l16.4,21.5
			l5.9,5.8l5.1,4.6l3.5,2.4l4.4,1.4l5.4,3.6l7.1,5.7l3.6,2.4l5.3,1.2l5.4,1l8.3,2.8l9.1,2.6l3.1,4.4l1.7,5.2l0.6,10.3l-0.2,29
			l1.4,8.8l-0.2,5l1.8,4.1l3.4,4.9l9.3,18.2l6.3,1.9l27.7,4.4l8.7,2l7.9,1.1l5.4-1l5.9-3.2l20.1-13.1l17.3-18.3l3.8-3.9l2-6.1
			l0.2-16.5l-3.2-6l0.8-7.5l8.4-3.1l12.9-3.8l14-4.8l8.3-5.9l18.1-5.1l14.8-3l10.2-0.8l11.1,2.9l8.6,1.3l18.1,7.4l8.3,2.6l4.5,0.8
			l-0.1-4.6l-0.4-6.7l-1.7-3.5l-2.9-1.3l-4.5-2l-3.2-3.2l-0.8-2.3l2.5-2l2.9-0.3l5.1,1.7l6.3,1.9l5.4,0.2l2.9,0.1l1.7-1.3l1.9-2.6
			l2.8-1.7l0.1-5.4l1.4-6.4L490.8,501.6z"/>
		<polygon class="st2" points="414.8,370.8 414.8,370.8 418,363.9 414.8,370.8 		"/>
		<polygon class="st2" points="422.1,363.2 422.2,362.9 418,363.9 		"/>
		<polygon class="st2" points="397.8,375.9 399.8,375.9 399.7,375.9 		"/>
		<polygon class="st2" points="408.8,376.7 408.8,376.7 411.3,373.6 412.3,372.8 411.4,373.6 		"/>
		<polygon class="st2" points="370.8,373.8 371,373.1 370.8,373.8 		"/>
		<polygon class="st2" points="362.9,377.9 361.8,378.3 358.3,377.2 361.7,378.4 		"/>
		<path class="st2" d="M338.6,535.6c0,0-0.1,0.7-0.4,0.9C338.6,536.4,338.7,535.6,338.6,535.6l0.4-1.3l-0.1,0L338.6,535.6z"/>
		<path class="st2" d="M337.4,401.2l-1.9-1.4l-3.8-6.4l-2.3-3.9l-5.4-2.4l-5.5-2.8l-4.9-1.1l-5.1,1.3h-1.4l-1.9-0.6l-4.4-0.7
			l-4.6-2.6c0,0-14.9-7-15.6-7.1s-3.5-0.8-3.5-0.8l-2.9,1.2l-4.8,2.3l-4.2,1.8l0,0l4.1-1.8l4.8-2.3l2.9-1.2c0,0,2.8,0.7,3.5,0.8
			s15.6,7.1,15.6,7.1l4.6,2.6l4.4,0.7l1.9,0.6h1.4l5.1-1.3l4.9,1.1l5.5,2.8l5.4,2.4l2.3,3.9l3.8,6.4L337.4,401.2l2.4,0.3l1.3,1.1
			l-0.6,5.3l-8.1,16.7l-2.9,4l-4.4,4l-4.3,3.8l-1.4,2.4l-1.4,1.5l0.1,0l1.4-1.5l1.4-2.4l4.3-3.8l4.4-4l2.9-4l8.1-16.7l0.6-5.3
			l-1.3-1.1L337.4,401.2z"/>
		<path class="st2" d="M332.3,536.8c0.5-0.3,1.3-0.9,1.6-1l0,0C333.9,535.7,332.9,536.4,332.3,536.8z"/>
		<polygon class="st2" points="360.8,509.8 359.9,510.1 359.9,510.1 360.7,509.9 359.2,515.7 359,517.8 359.9,518.4 360,518.4 
			359.1,517.8 359.3,515.7 		"/>
		<polygon class="st2" points="454.9,378.6 454.9,378.6 454.9,378.6 		"/>
		<polygon class="st2" points="438.8,349.9 438.8,349.9 438.8,349.9 		"/>
		<polygon class="st2" points="455.9,393.8 455.9,393.8 455.9,393.8 		"/>
		<polygon class="st2" points="438.3,354.9 439.2,356.2 440.4,357.1 438.9,354.7 438.9,353.6 438.6,353.9 		"/>
		<polygon class="st2" points="445.4,359 445.4,359 445.4,359 		"/>
		<polygon class="st2" points="428.4,345.2 429.5,345.5 429.9,346 431,346.3 432.2,345.6 432.9,345.5 430.2,345.8 426.7,343.3 
			427,343.7 		"/>
		<path class="st2" d="M435.6,347.4l1.6,0.9c-0.8-0.8-1.7-1.7-1.7-1.7l-1.7-0.7l0.4,0.2L435.6,347.4z"/>
		<polygon class="st2" points="447.8,363 447.8,363 447.8,363 		"/>
		<polygon class="st2" points="453.9,392.7 454.3,393 453.9,392.7 		"/>
		<polygon class="st2" points="448.4,365.9 448,364.1 448,365.2 		"/>
		<polygon class="st2" points="445.3,361.6 446.1,362.2 447.5,362.8 446,361.8 445.6,359.6 445.2,360.7 		"/>
		<polygon class="st2" points="455.8,381.6 455.9,381.7 455.7,381.4 455.3,379.6 455.4,380.6 		"/>
		<polygon class="st2" points="452.8,378.2 452.8,378.2 451.1,377.2 452.1,378.1 		"/>
		<polygon class="st2" points="450.6,376.2 451.1,377.2 450.8,374.2 450.7,374.7 		"/>
		<path class="st2" d="M446.9,371.3l0.4,0.7l2.5,1.3l-0.9-0.8c0,0-1.1-0.6-1.1-1c0-0.4,0.2-1.9,0.2-1.9l-0.6,0.6L446.9,371.3z"/>
		<polygon class="st2" points="456.8,384.8 456.8,383.2 456.7,383.7 		"/>
		<polygon class="st2" points="443.4,358.1 444,358.2 444,358.2 441.5,357.9 442,358.3 		"/>
		<polygon class="st2" points="458.1,391.5 457.9,392.6 457.6,393 456.5,393.6 458,393.1 458.5,390.3 458.2,389.6 458.2,390.1 		"/>
		<polygon class="st2" points="457.2,387.1 456.8,384.8 457.1,386.9 		"/>
	</g>
	<g id="Map_1:_Réserve-Forestière-Nyamusisi_x5F_n_xB0_52_x5F_137_x5F_2mai1952">
		<g transform="matrix(1,0,0,1,0,0)">
		</g>
		<g transform="matrix(1,0,0,1,0,0)">
		</g>
		<g transform="matrix(11.8095,0,0,11.8095,-3.76142e-14,204.762)">
		</g>
		<g transform="matrix(11.8095,0,0,11.8095,-3.76142e-14,204.762)">
		</g>
		<g transform="matrix(0.999873,0,0,0.999873,-3.76142e-14,204.762)">
		</g>
		<g transform="matrix(0.999873,0,0,0.999873,-3.76142e-14,204.762)">
			<path vector-effect="none" class="st3" d="M114.5,116.4l1.9-2.6l3.3-2.5l0.6-1.5l-1.1-2l0.2-0.9l1.8-0.2l2.3-1.9l0.4-1.2
				l-0.4-1.9l0.4-0.4l-0.5-1l-0.9-0.3l0.1-0.9l1-2.4l-0.9-2.7l0.5-2.4l-0.1-1.2l0.3-1.2l0.7-0.8l1.4-0.6l1-0.7l0.4-0.6l0.1-0.8
				l-0.1-1.6l0.2-0.8l0.5-1.1l2.8-1.2l2.6-0.5l0.7-0.2l0.7-0.4l2.2-1.9l0.4-0.6l0.1-0.6l-0.2-0.5v-0.8l0.1-0.6l2.3-4.8l0.8-0.9
				l0.6-0.4l0.9,0.1l1.3,0.7l1.6,0.1l1.6-1.6l13-5.4l13.1-2.3l6.5,0.3l8.8,3l43.2,13.4l8.6,4.3l7.6,3.4l6.9,1.4l42.1-0.8l5.3,1.4
				l3.2-0.5l4.8-0.2l4.6,1.3l10.6,1.1l5.1,2.3l3,1.9l4,0.5l4,0.9l4.6,3.4l6.5,1.8l6,1.2l15.6,0.7l9.9,2.3l5.6,2.3l4.5,3.3l4,3.9
				l4.3,1.7l6.7,0.7l8,1.3l6.8,2.1l1.9,0.9l1.1,0.6l0.5,0.5l0.6,1.7l0.8,2.2l0.5,1.3l0.7,0.9l0.4,0.5l-0.1,0.6l-0.9,0.8l-1.3,1.1
				l-2.1,0.8l-1,1.7l0.3,2.4l0.4,2.4l0.4,0.7l1.1,0.3l0.8,1.3l1.4,1.5l1.1,0.3l0.4,0.5l1.1,0.3l1.2-0.7l0.8-0.2l1.3,0.7l1.3,1.3
				l2.7,1.5l1.1,2.5v1.5l-0.8,1l-0.3,1l0.9,1.3l2.8,2.1l1.4-0.2l1.3,0.1l0.9,1l-0.4,1.5l0.1,0.9l0.8,0.6l1.6,0.6l0.3,0.5v1.9
				l0.6,1.1l0.7,0.8l-0.4,1.6l-1.5,1.4l-0.5,1.2l0.4,0.7l3.5,1.8l-0.1,0.9l-0.1,1.5l0.5,1l1,0.9l0.9,0.1l0.9-0.2l0.8,0.2l0.5,1.1
				l0.2,1.3l0.4,1l0.9,0.8l0.1,0.4l-0.1,0.9l0.1,1.1l0.3,2.1l0.6,1.2l0.4,0.7l0.1,1.3l-0.1,1.4l-0.2,1.1l-0.3,0.4l-1.2,0.6l-1,0.3
				l-0.5-0.1l-0.6-0.8l-0.4-0.3l-0.9,0.1l-1.1,1.2l-0.9,1.8l-0.3,1.2l1,0.9l0.6,0.8l0.6,0.2l1.4-0.2l1.5,0.5l1.2,0.5l1.7-0.4
				l0.7,0.1l0.3,1l1.3,2l0.1,3.4l-1.3,1.5l-2,0.8l-1.5,2.6l0.9,1.1l3.3,3.2l1.4,3l1.9,4.5l0.6,1.3l-0.2,2.1l0.7,3.1l-0.1,1l-0.7,0.4
				l-1-0.4l-2.7-1.5l-1.1-0.4l-1.1,0.4l-2.3,1.4l-0.6,0.9l0.7,4l0.8,2.1l0.4,2.1l2.2,2.1l1.8,0.7l1.5-1.8l1.7-1.3l1.9-0.1l3.2,1.9
				l0.9,4.2l-0.5,2.6l0.8,1.3l2.8,1.1l1.9,2.3l4.7,0.9l2.5,3.4l1.1,2.2l0.8,2.1l-0.8,2.6l-1.1,2.3l0.2,2.9l0.9,1.5l1.9,1.8l0.6,2
				l-0.6,2.8l-1.7,1.2l-1.3,0.5l-0.3,1.5l1.5,1.2l1.1,1l3.2,0.9l0.6,2.8l-2,1.4l-1.8,0.8v1.7l2.2,2.6l2,1.3l1.2,4.1l1.7,2l-1.2,2.1
				l2.5,4.5l-1.4,6.4l-0.1,5.4l-2.8,1.7l-1.9,2.6l-1.7,1.3l-2.9-0.1l-5.4-0.2l-6.3-1.9l-5.1-1.7l-2.9,0.3l-2.5,2l0.8,2.3l3.2,3.2
				l4.5,2l2.9,1.3l1.7,3.5l0.4,6.7l0.1,4.6l-4.5-0.8l-8.3-2.6l-18.1-7.4l-8.6-1.3l-11.1-2.9l-10.2,0.8l-14.8,3l-18.1,5.1l-8.3,5.9
				l-14,4.8l-12.9,3.8l-8.4,3.1l-0.8,7.5l3.2,6l-0.2,16.5l-2,6.1l-3.8,3.9l-17.3,18.3l-20.1,13.1l-5.9,3.2l-5.4,1l-7.9-1.1l-8.7-2
				l-27.7-4.4l-6.3-1.9l-9.3-18.2l-3.4-4.9l-1.8-4.1l0.2-5l-1.4-8.8l0.2-29l-0.6-10.3l-1.7-5.2l-3.1-4.4l-9.1-2.6l-8.3-2.8l-5.4-1
				l-5.3-1.2l-3.6-2.4l-7.1-5.7l-5.4-3.6l-4.4-1.4l-3.5-2.4l-5.1-4.6l-5.9-5.8l-16.4-21.5l-3.8-4.3l-2-3.6l-1.6-3.7l-2.3-3.2
				l-1.2-7.3l-1.4-2.1l-2.8-5.4l-2.6-3.5l-0.2-4.6l-1.4-4.1l-2.3-3.2l1.4-18.9l1.5-7.3l3.6-5.3l4.5-5.2l4.4-4.2l1.1-4.5l-0.1-3.6
				l-2.7-4.8l-1.2-2.5l-5.2-15.9l-2.1-11.8l-0.2-14.7l-2.1-12.7L114.5,116.4"/>
		</g>
		<g transform="matrix(0.999873,0,0,0.999873,-3.76142e-14,204.762)">
		</g>
		<g transform="matrix(11.8095,0,0,11.8095,-3.76142e-14,204.762)">
		</g>
		<g transform="matrix(11.8095,0,0,11.8095,-3.76142e-14,204.762)">
		</g>
		<g transform="matrix(11.8095,0,0,11.8095,-3.76142e-14,204.762)">
		</g>
		<g transform="matrix(1,0,0,1,0,0)">
		</g>
		<g transform="matrix(11.8095,0,0,11.8095,-3.76142e-14,204.762)">
		</g>
		<g transform="matrix(11.8095,0,0,11.8095,-3.76142e-14,204.762)">
		</g>
		<g transform="matrix(1,0,0,1,0,0)">
		</g>
	</g>
	<g id="Map_1:_Réserve-naturelle-d_x5F_Idjwi-Nyamusisi_x5F__n_xB0_22_x5F_131_x5F_GP_x5F_SK_x5F_20mai2022">
		<g transform="matrix(1,0,0,1,0,0)">
		</g>
		<g transform="matrix(1,0,0,1,0,0)">
		</g>
		<g transform="matrix(11.8095,0,0,11.8095,-3.76142e-14,204.762)">
		</g>
		<g transform="matrix(11.8095,0,0,11.8095,-3.76142e-14,204.762)">
		</g>
		<g transform="matrix(0.999873,0,0,0.999873,-3.76142e-14,204.762)">
		</g>
		<g transform="matrix(0.999873,0,0,0.999873,-3.76142e-14,204.762)">
			<path vector-effect="none" class="st1" d="M388.9,123.6v-3l1.6-2l7.5,9.4l-1.4,8.7l-4.1,2.5l8,1.4l0.3,1.3l10.3,5.2l7.1-0.8
				l1.5,1.4l2.9,10.9l-4.6,1l-3.3,7.2l-3.3,2.5l-2.9,3.5l-8.8-1.2l-7,0.1l-2.7,2.6l-1.7,3.8l-5.3,0.2l-4.4-1.6l-0.1-3.1l-2.6-2.8
				l-0.7-1.5l-3.5-2.6l-0.9,2.9l-1.8-0.3l-1.7,1.4l-3.4,2.6l-2.1,0.7l-3.7-1.1l-3.4,0.1l-1.5-2.9l-1.1-4l-1.8-3l-0.2-9.6l2.3-4.5
				l1.6-2.1l3.9-3.4l2.9-0.2l2.2-2.1l2.4,0.6l3.1-2.9l3-0.1l2.8-2.1l0.6-4.8l2.5-3.1l3.2-0.2l2.4-1.3l1.7-0.2L388.9,123.6"/>
		</g>
		<g transform="matrix(0.999873,0,0,0.999873,-3.76142e-14,204.762)">
		</g>
		<g transform="matrix(11.8095,0,0,11.8095,-3.76142e-14,204.762)">
		</g>
		<g transform="matrix(11.8095,0,0,11.8095,-3.76142e-14,204.762)">
		</g>
		<g transform="matrix(11.8095,0,0,11.8095,-3.76142e-14,204.762)">
		</g>
		<g transform="matrix(1,0,0,1,0,0)">
		</g>
		<g transform="matrix(11.8095,0,0,11.8095,-3.76142e-14,204.762)">
		</g>
		<g transform="matrix(11.8095,0,0,11.8095,-3.76142e-14,204.762)">
		</g>
		<g transform="matrix(1,0,0,1,0,0)">
		</g>
	</g>
	<g id="Map_1:_Réserve-Forestière-Nyamusisi_x5F_n_xB0_52_x5F_137_x5F_2mai1952_1_">
		<g transform="matrix(1,0,0,1,0,0)">
		</g>
		<g transform="matrix(1,0,0,1,0,0)">
		</g>
		<g transform="matrix(11.8095,0,0,11.8095,-3.76142e-14,204.762)">
		</g>
		<g transform="matrix(11.8095,0,0,11.8095,-3.76142e-14,204.762)">
		</g>
		<g transform="matrix(0.999873,0,0,0.999873,-3.76142e-14,204.762)">
		</g>
		<g transform="matrix(0.999873,0,0,0.999873,-3.76142e-14,204.762)">
		</g>
		<g transform="matrix(11.8095,0,0,11.8095,-3.76142e-14,204.762)">
		</g>
		<g transform="matrix(11.8095,0,0,11.8095,-3.76142e-14,204.762)">
		</g>
		<g transform="matrix(11.8095,0,0,11.8095,-3.76142e-14,204.762)">
		</g>
		<g transform="matrix(1,0,0,1,0,0)">
		</g>
		<g transform="matrix(11.8095,0,0,11.8095,-3.76142e-14,204.762)">
		</g>
		<g transform="matrix(11.8095,0,0,11.8095,-3.76142e-14,204.762)">
		</g>
		<g transform="matrix(1,0,0,1,0,0)">
		</g>
	</g>
	<g id="Map_1:_Réserve-naturelle-d_x5F_Idjwi-Nyamusisi_x5F__n_xB0_22_x5F_131_x5F_GP_x5F_SK_x5F_20mai2022_1_">
		<g transform="matrix(1,0,0,1,0,0)">
		</g>
		<g transform="matrix(1,0,0,1,0,0)">
		</g>
		<g transform="matrix(11.8095,0,0,11.8095,-3.76142e-14,204.762)">
		</g>
		<g transform="matrix(11.8095,0,0,11.8095,-3.76142e-14,204.762)">
		</g>
		<g transform="matrix(0.999873,0,0,0.999873,-3.76142e-14,204.762)">
		</g>
		<g transform="matrix(0.999873,0,0,0.999873,-3.76142e-14,204.762)">
		</g>
		<g transform="matrix(11.8095,0,0,11.8095,-3.76142e-14,204.762)">
		</g>
		<g transform="matrix(11.8095,0,0,11.8095,-3.76142e-14,204.762)">
		</g>
		<g transform="matrix(11.8095,0,0,11.8095,-3.76142e-14,204.762)">
		</g>
		<g transform="matrix(1,0,0,1,0,0)">
		</g>
		<g transform="matrix(11.8095,0,0,11.8095,-3.76142e-14,204.762)">
		</g>
		<g transform="matrix(11.8095,0,0,11.8095,-3.76142e-14,204.762)">
		</g>
		<g transform="matrix(1,0,0,1,0,0)">
		</g>
	</g>
</g>
</svg>
